<svg class="svg-icon" style="width: 1em;height: 1em;vertical-align: middle;fill: currentColor;overflow: hidden;" viewBox="0 0 1024 1024" version="1.1" xmlns="http://www.w3.org/2000/svg"><path d="M469.333333 853.333333H192A149.504 149.504 0 0 1 42.666667 704v-384A149.504 149.504 0 0 1 192 170.666667h554.666667A149.504 149.504 0 0 1 896 320V426.666667a21.333333 21.333333 0 0 1-42.666667 0V320A106.794667 106.794667 0 0 0 746.666667 213.333333h-554.666667A106.794667 106.794667 0 0 0 85.333333 320v384A106.794667 106.794667 0 0 0 192 810.666667H469.333333a21.333333 21.333333 0 0 1 0 42.666666z"  /><path d="M862.72 384H149.333333a21.333333 21.333333 0 0 1 0-42.666667h713.386667a21.333333 21.333333 0 0 1 0 42.666667zM748.501333 810.666667a21.333333 21.333333 0 0 1-21.333333-21.333334v-170.666666a21.333333 21.333333 0 1 1 42.666667 0v170.666666a21.333333 21.333333 0 0 1-21.333334 21.333334z"  /><path d="M833.834667 725.333333h-170.666667a21.333333 21.333333 0 1 1 0-42.666666h170.666667a21.333333 21.333333 0 0 1 0 42.666666z"  /><path d="M746.666667 938.666667a234.666667 234.666667 0 1 1 234.666666-234.666667 234.922667 234.922667 0 0 1-234.666666 234.666667z m0-426.666667a192 192 0 1 0 192 192 192.213333 192.213333 0 0 0-192-192z"  /></svg>